<svg id="Calque_1" data-name="Calque 1" xmlns="http://www.w3.org/2000/svg" viewBox="0 0 173.7 65.28"><defs><style>.cls-1{fill:#fff;}.cls-2{fill:#1e1e1c;}.cls-3{fill:none;stroke:#1e1e1c;stroke-miterlimit:10;stroke-width:0.25px;}.cls-4{fill:#70706f;}</style></defs><title>enseigne</title><path class="cls-1" d="M327.72,514.88h0a25.6,25.6,0,0,0-4.29-3.87h0a2.86,2.86,0,0,0-.37-.42c-4.76-3.79-2.79-3.91-8.51-.26h0c-.89.42-1.81.81-2.64,1.27a2,2,0,0,1-2.17.2c-3.6-1.53-7.52-2.81-9.74-5.3h0l-1-.69h0a23.05,23.05,0,0,0-7.38-6.06,2.6,2.6,0,0,0-1.54-1h0l-.45,0c-.84-1.49-3.22-2.18-4.65-3.38-2.57-2.13-2.63-2.11-5.43-.22a4,4,0,0,0-.42.4h0a45.5,45.5,0,0,0-6.88,4.73c-1.38,1.07-2.22,1.09-3.51-.12a90.56,90.56,0,0,0-15.68-11.39c-.23,0-.53-.13-.68-.07-4.92,1.87-10.06,3.61-12.37,7.19h0c-.26.21-.54.4-.78.62-2.19,2-3.83,4.34-6.68,5.84-4.83,2.54-10.44,4.52-15.67,6.79a2,2,0,0,1-2.36-.17c-1.61-1.18-3.51-2.23-4.92-3.49-1.22-1.11-2-.84-3.09-.05-1.85,1.33-3.76,2.63-5.65,3.94-2.69,1.25-4.5,3-6.79,4.49-.75.3-1.41.64-1.44,1.31l2-1h0a49.17,49.17,0,0,0,6.79-3.5h0a27.78,27.78,0,0,0,5-2.27c1-.5,2-1,3.4-.2,2.66,1.52,5.45,3,8.2,4.42.4.22.72.66,1.48.34-1.85-2.11-1.86-2.12,1.75-3.48,4-1.51,8-2.95,12-4.52a3,3,0,0,1,2.93.14c1.56.81,3.29,1.49,5.38,2.41-1.22-2-3.52-3.36-4-5.22,2.45-1.68,4.15-3.67,6.19-5.52h0c2.28-1.79,3.94-3.93,7.38-5.08a3.21,3.21,0,0,1,2.43.71l4.77,3.12h0L264,500.1a29.66,29.66,0,0,0,4.67,4.17h0c.54,1.33,2.32,1.43,4.1,1.75,5.22.94,10.31,1.4,15.24-.5.4-.15,1-.13,1.09-.65-1.61.15-3.24-.28-4.73.33h0a30.57,30.57,0,0,1-4.39,0c-2.36-.35-5.17-.24-6.55-1.9l.57-.6h0c.74-.25,1-.73,1.38-1.13a33.51,33.51,0,0,1,5.67-4.74,2,2,0,0,1,2.53,0c1.22.82,2.59,1.56,3.9,2.33a9.71,9.71,0,0,0,3.13,2.22l1,.67.2-.07-.2.07c3.79,3.42,6.95,7.08,13.1,9.37,6.65,2.47,6.45,2.67,12-.73a3.46,3.46,0,0,1,4,.4,5.91,5.91,0,0,0,1.15.61c2.45,2.31,3,1.43,5.81,3.53Z" transform="translate(-173.33 -488.69)"/><path class="cls-2" d="M192.62,518.84,183.07,540h-.22l-9.52-21.13h3.46l6.16,14,6.19-14Z" transform="translate(-173.33 -488.69)"/><path class="cls-2" d="M196.49,522v5.3h7.84v3.24h-7.84v5.73h9.08v3.23H193.24v-20.7h12.33V522Z" transform="translate(-173.33 -488.69)"/><path class="cls-2" d="M219.75,536.31v3.23H207.27v-20.7h3.25v17.47Z" transform="translate(-173.33 -488.69)"/><path class="cls-2" d="M240.49,529.54a10.69,10.69,0,1,1-10.68-10.68A10.68,10.68,0,0,1,240.49,529.54Zm-10.68-8.69a8.69,8.69,0,1,0,8.69,8.69A8.7,8.7,0,0,0,229.81,520.85Z" transform="translate(-173.33 -488.69)"/><circle class="cls-3" cx="56.46" cy="40.84" r="0.81"/><line class="cls-3" x1="56.59" y1="40.04" x2="58.07" y2="31.1"/><line class="cls-3" x1="56.82" y1="40.12" x2="61.02" y2="32.07"/><line class="cls-3" x1="57.04" y1="40.27" x2="63.5" y2="33.9"/><line class="cls-3" x1="57.18" y1="40.47" x2="65.31" y2="36.42"/><line class="cls-3" x1="57.26" y1="40.71" x2="66.25" y2="39.36"/><line class="cls-3" x1="57.26" y1="40.97" x2="66.23" y2="42.48"/><line class="cls-3" x1="57.17" y1="41.24" x2="65.27" y2="45.39"/><line class="cls-3" x1="57.03" y1="41.42" x2="63.43" y2="47.88"/><line class="cls-3" x1="56.83" y1="41.57" x2="60.97" y2="49.67"/><line class="cls-3" x1="56.59" y1="41.65" x2="58" y2="50.63"/><line class="cls-3" x1="56.32" y1="41.65" x2="54.89" y2="50.62"/><line class="cls-3" x1="56.08" y1="41.57" x2="51.93" y2="49.64"/><line class="cls-3" x1="55.88" y1="41.42" x2="49.47" y2="47.83"/><line class="cls-3" x1="55.73" y1="41.21" x2="47.63" y2="45.29"/><line class="cls-3" x1="55.65" y1="40.96" x2="46.7" y2="42.37"/><line class="cls-3" x1="55.65" y1="40.71" x2="46.72" y2="39.21"/><line class="cls-3" x1="55.75" y1="40.45" x2="47.69" y2="36.32"/><line class="cls-3" x1="55.89" y1="40.27" x2="49.53" y2="33.81"/><line class="cls-3" x1="56.11" y1="40.11" x2="52.06" y2="32"/><line class="cls-3" x1="56.36" y1="40.04" x2="55.03" y2="31.07"/><path class="cls-2" d="M249.7,536.18l2.55-1.83a5.17,5.17,0,0,0,4.61,2.53c2.32,0,4.07-1.11,4.07-2.68,0-1.9-2.71-3.05-5.11-4.09s-5.1-2.32-5.1-5.55,2.93-5.72,6.63-5.72c2.94,0,5.13,1.41,6,3.67l-2.4,1.66a3.85,3.85,0,0,0-3.55-2.17c-1.89,0-3.4,1.18-3.4,2.63,0,1.61,1.9,2.19,4.4,3.26,3.26,1.43,5.79,3,5.79,6.25,0,3.65-3.17,6-7.34,6C253.44,540.14,250.88,538.55,249.7,536.18Z" transform="translate(-173.33 -488.69)"/><path class="cls-2" d="M268.5,522.39v5.27h7.79v3.22H268.5v5.69h9v3.22H265.27V519.21h12.26v3.18Z" transform="translate(-173.33 -488.69)"/><path class="cls-2" d="M290.53,539.79l-5.55-8h-2.53v8h-3.23V519.21h6.4a6.8,6.8,0,0,1,7,6.61,6,6,0,0,1-4.07,5.74l6,8.23Zm-4.84-10.65a3.52,3.52,0,0,0,3.56-3.39,3.44,3.44,0,0,0-3.56-3.34h-3.25v6.73Z" transform="translate(-173.33 -488.69)"/><path class="cls-2" d="M311,519.21l-9.5,21h-.22l-9.46-21h3.43l6.13,13.93,6.16-13.93Z" transform="translate(-173.33 -488.69)"/><path class="cls-2" d="M311.57,519.21h3.23v20.58h-3.23Z" transform="translate(-173.33 -488.69)"/><path class="cls-2" d="M316.1,529.51a10.75,10.75,0,0,1,10.63-10.66,10.42,10.42,0,0,1,7.15,3.14L332,524.53a7.66,7.66,0,0,0-5.34-2.4,7.38,7.38,0,0,0,0,14.75,7.67,7.67,0,0,0,5.34-2.45l1.87,2.6a9.83,9.83,0,0,1-7.1,3.09A10.72,10.72,0,0,1,316.1,529.51Z" transform="translate(-173.33 -488.69)"/><path class="cls-2" d="M338,522.39v5.27h7.79v3.22H338v5.69h9v3.22H334.77V519.21H347v3.18Z" transform="translate(-173.33 -488.69)"/><path class="cls-4" d="M194.25,549.38h-2.34v2.17h2.6v.66h-3.38v-6h3.25v.65h-2.47v1.9h2.34Z" transform="translate(-173.33 -488.69)"/><path class="cls-4" d="M195.49,549.05c0-.44,0-.81,0-1.17h.69l0,.72h0a1.59,1.59,0,0,1,1.43-.82c.59,0,1.52.36,1.52,1.84v2.59h-.78v-2.5c0-.69-.26-1.27-1-1.27a1.12,1.12,0,0,0-1.06.8,1.32,1.32,0,0,0-.05.37v2.6h-.79Z" transform="translate(-173.33 -488.69)"/><path class="cls-4" d="M201.36,546.64v1.24h1.12v.6h-1.12v2.33c0,.54.15.84.59.84a2.07,2.07,0,0,0,.45,0l0,.59a2,2,0,0,1-.7.1,1.09,1.09,0,0,1-.85-.33,1.6,1.6,0,0,1-.3-1.12v-2.36h-.67v-.6h.67v-1Z" transform="translate(-173.33 -488.69)"/><path class="cls-4" d="M203.37,549.23c0-.51,0-1,0-1.35H204l0,.85h0a1.31,1.31,0,0,1,1.2-1,.73.73,0,0,1,.22,0v.74a1.11,1.11,0,0,0-1.32,1,1.88,1.88,0,0,0,0,.36v2.31h-.77Z" transform="translate(-173.33 -488.69)"/><path class="cls-4" d="M206.63,550.19a1.39,1.39,0,0,0,1.49,1.5,2.71,2.71,0,0,0,1.19-.23l.14.57a3.63,3.63,0,0,1-1.44.26,2,2,0,0,1-2.13-2.17,2.1,2.1,0,0,1,2-2.34,1.84,1.84,0,0,1,1.79,2,2.73,2.73,0,0,1,0,.37Zm2.31-.57a1.12,1.12,0,0,0-1.09-1.27,1.31,1.31,0,0,0-1.21,1.27Z" transform="translate(-173.33 -488.69)"/><path class="cls-4" d="M211.62,546.64v1.24h1.12v.6h-1.12v2.33c0,.54.15.84.58.84a2.18,2.18,0,0,0,.46,0l0,.59a2.08,2.08,0,0,1-.7.1,1.07,1.07,0,0,1-.85-.33,1.6,1.6,0,0,1-.3-1.12v-2.36h-.67v-.6h.67v-1Z" transform="translate(-173.33 -488.69)"/><path class="cls-4" d="M214.5,546.67a.49.49,0,0,1-1,0,.47.47,0,0,1,.49-.49A.46.46,0,0,1,214.5,546.67Zm-.88,5.54v-4.33h.79v4.33Z" transform="translate(-173.33 -488.69)"/><path class="cls-4" d="M216.15,550.19a1.39,1.39,0,0,0,1.48,1.5,2.8,2.8,0,0,0,1.2-.23l.13.57a3.59,3.59,0,0,1-1.44.26,2,2,0,0,1-2.12-2.17,2.1,2.1,0,0,1,2-2.34,1.83,1.83,0,0,1,1.78,2,3.12,3.12,0,0,1,0,.37Zm2.3-.57a1.11,1.11,0,0,0-1.09-1.27,1.3,1.3,0,0,0-1.2,1.27Z" transform="translate(-173.33 -488.69)"/><path class="cls-4" d="M220.18,549.05c0-.44,0-.81,0-1.17h.69l0,.72h0a1.59,1.59,0,0,1,1.43-.82c.59,0,1.52.36,1.52,1.84v2.59h-.78v-2.5c0-.69-.26-1.27-1-1.27a1.12,1.12,0,0,0-1.06.8,1.32,1.32,0,0,0-.05.37v2.6h-.79Z" transform="translate(-173.33 -488.69)"/><path class="cls-4" d="M229,546.27a8,8,0,0,1,1.49-.13,2.45,2.45,0,0,1,1.74.49,1.49,1.49,0,0,1,.48,1.15,1.57,1.57,0,0,1-1.14,1.53v0a1.51,1.51,0,0,1,.89,1.21,10,10,0,0,0,.46,1.66h-.8a7.5,7.5,0,0,1-.41-1.44c-.17-.83-.5-1.15-1.2-1.17h-.73v2.61H229Zm.78,2.74h.79c.83,0,1.36-.46,1.36-1.15s-.56-1.11-1.39-1.12a2.93,2.93,0,0,0-.76.07Z" transform="translate(-173.33 -488.69)"/><path class="cls-4" d="M234.2,550.19a1.38,1.38,0,0,0,1.48,1.5,2.8,2.8,0,0,0,1.2-.23l.13.57a3.59,3.59,0,0,1-1.44.26,2,2,0,0,1-2.12-2.17,2.1,2.1,0,0,1,2-2.34,1.83,1.83,0,0,1,1.78,2,2.73,2.73,0,0,1,0,.37Zm2.3-.57a1.11,1.11,0,0,0-1.09-1.27,1.3,1.3,0,0,0-1.2,1.27Zm.19-3.6-1.09,1.27H235l.78-1.27Z" transform="translate(-173.33 -488.69)"/><path class="cls-4" d="M238.23,549.29c0-.55,0-1,0-1.41h.7l0,.74h0a1.71,1.71,0,0,1,1.53-.84,2,2,0,0,1,1.83,2.2c0,1.56-.94,2.32-2,2.32a1.52,1.52,0,0,1-1.33-.68h0V554h-.78Zm.78,1.16a1.65,1.65,0,0,0,0,.32,1.21,1.21,0,0,0,1.17.92c.84,0,1.32-.68,1.32-1.67s-.46-1.61-1.29-1.61a1.26,1.26,0,0,0-1.19,1,1.77,1.77,0,0,0-.05.32Z" transform="translate(-173.33 -488.69)"/><path class="cls-4" d="M245.71,552.21l-.07-.55h0a1.62,1.62,0,0,1-1.33.64,1.23,1.23,0,0,1-1.32-1.24c0-1,.93-1.61,2.6-1.61v-.09a.89.89,0,0,0-1-1,2.17,2.17,0,0,0-1.13.33l-.17-.52a2.67,2.67,0,0,1,1.42-.39c1.32,0,1.64.91,1.64,1.77v1.62a6.63,6.63,0,0,0,.07,1Zm-.12-2.21c-.86,0-1.83.13-1.83,1a.69.69,0,0,0,.74.75,1,1,0,0,0,1.09-1Z" transform="translate(-173.33 -488.69)"/><path class="cls-4" d="M247.62,549.23c0-.51,0-1,0-1.35h.69l0,.85h0a1.31,1.31,0,0,1,1.2-1,.73.73,0,0,1,.22,0v.74a1.1,1.1,0,0,0-.27,0,1.09,1.09,0,0,0-1,1,1.88,1.88,0,0,0,0,.36v2.31h-.77Z" transform="translate(-173.33 -488.69)"/><path class="cls-4" d="M252.88,552.21l-.06-.55h0a1.6,1.6,0,0,1-1.32.64,1.23,1.23,0,0,1-1.32-1.24c0-1,.93-1.61,2.6-1.61v-.09a.89.89,0,0,0-1-1,2.11,2.11,0,0,0-1.13.33l-.18-.52a2.72,2.72,0,0,1,1.42-.39c1.32,0,1.65.91,1.65,1.77v1.62a5.61,5.61,0,0,0,.07,1Zm-.11-2.21c-.86,0-1.83.13-1.83,1a.69.69,0,0,0,.74.75,1.06,1.06,0,0,0,1-.72.74.74,0,0,0,.05-.25Z" transform="translate(-173.33 -488.69)"/><path class="cls-4" d="M255.7,546.64v1.24h1.13v.6H255.7v2.33c0,.54.16.84.59.84a2.18,2.18,0,0,0,.46,0l0,.59a2,2,0,0,1-.69.1,1.07,1.07,0,0,1-.85-.33,1.6,1.6,0,0,1-.31-1.12v-2.36h-.67v-.6h.67v-1Z" transform="translate(-173.33 -488.69)"/><path class="cls-4" d="M258.59,546.67a.46.46,0,0,1-.5.48.47.47,0,0,1-.48-.48.48.48,0,0,1,.49-.49A.47.47,0,0,1,258.59,546.67Zm-.88,5.54v-4.33h.79v4.33Z" transform="translate(-173.33 -488.69)"/><path class="cls-4" d="M263.71,550a2.11,2.11,0,0,1-2.15,2.29,2,2,0,0,1-2.07-2.22,2.11,2.11,0,0,1,2.14-2.3A2.05,2.05,0,0,1,263.71,550Zm-3.43,0c0,1,.55,1.66,1.31,1.66s1.32-.7,1.32-1.68c0-.73-.37-1.66-1.3-1.66S260.28,549.23,260.28,550.05Z" transform="translate(-173.33 -488.69)"/><path class="cls-4" d="M264.7,549.05c0-.44,0-.81,0-1.17h.7l.05.72h0a1.61,1.61,0,0,1,1.43-.82c.6,0,1.53.36,1.53,1.84v2.59h-.79v-2.5c0-.69-.26-1.27-1-1.27a1.11,1.11,0,0,0-1,.8,1,1,0,0,0-.05.37v2.6h-.79Z" transform="translate(-173.33 -488.69)"/><path class="cls-4" d="M274.47,552.21l-2-6h.84l.94,3c.26.81.48,1.55.64,2.25h0c.17-.7.42-1.45.69-2.24l1-3h.83l-2.16,6Z" transform="translate(-173.33 -488.69)"/><path class="cls-4" d="M278.24,550.19a1.39,1.39,0,0,0,1.48,1.5,2.73,2.73,0,0,0,1.2-.23l.14.57a3.63,3.63,0,0,1-1.44.26,2,2,0,0,1-2.13-2.17,2.1,2.1,0,0,1,2-2.34,1.84,1.84,0,0,1,1.79,2,2.73,2.73,0,0,1,0,.37Zm2.31-.57a1.12,1.12,0,0,0-1.09-1.27,1.3,1.3,0,0,0-1.21,1.27Z" transform="translate(-173.33 -488.69)"/><path class="cls-4" d="M282.28,549.05c0-.44,0-.81,0-1.17h.7l0,.72h0a1.6,1.6,0,0,1,1.43-.82c.6,0,1.53.36,1.53,1.84v2.59h-.79v-2.5c0-.69-.26-1.27-1-1.27a1.1,1.1,0,0,0-1.05.8,1,1,0,0,0-.06.37v2.6h-.78Z" transform="translate(-173.33 -488.69)"/><path class="cls-4" d="M288.14,546.64v1.24h1.13v.6h-1.13v2.33c0,.54.15.84.59.84a2.18,2.18,0,0,0,.46,0l0,.59a2,2,0,0,1-.69.1,1.06,1.06,0,0,1-.85-.33,1.55,1.55,0,0,1-.31-1.12v-2.36h-.67v-.6h.67v-1Z" transform="translate(-173.33 -488.69)"/><path class="cls-4" d="M290.53,550.19a1.39,1.39,0,0,0,1.49,1.5,2.71,2.71,0,0,0,1.19-.23l.14.57a3.63,3.63,0,0,1-1.44.26,2,2,0,0,1-2.13-2.17,2.1,2.1,0,0,1,2-2.34,1.84,1.84,0,0,1,1.79,2,2.73,2.73,0,0,1,0,.37Zm2.31-.57a1.12,1.12,0,0,0-1.09-1.27,1.31,1.31,0,0,0-1.21,1.27Z" transform="translate(-173.33 -488.69)"/><path class="cls-4" d="M298.38,546.19h.78v5.36h2.57v.66h-3.35Z" transform="translate(-173.33 -488.69)"/><path class="cls-4" d="M306.35,550a2.1,2.1,0,0,1-2.15,2.29,2,2,0,0,1-2.07-2.22,2.11,2.11,0,0,1,2.14-2.3A2.05,2.05,0,0,1,306.35,550Zm-3.43,0c0,1,.55,1.66,1.32,1.66s1.31-.7,1.31-1.68c0-.73-.37-1.66-1.3-1.66S302.92,549.23,302.92,550.05Z" transform="translate(-173.33 -488.69)"/><path class="cls-4" d="M310.42,552a2.83,2.83,0,0,1-1.24.25,2.05,2.05,0,0,1-2.15-2.2,2.2,2.2,0,0,1,2.32-2.3,2.53,2.53,0,0,1,1.09.23l-.18.6a1.91,1.91,0,0,0-.91-.2,1.63,1.63,0,0,0,0,3.25,2.36,2.36,0,0,0,1-.21Z" transform="translate(-173.33 -488.69)"/><path class="cls-4" d="M313.74,552.21l-.07-.55h0a1.63,1.63,0,0,1-1.33.64,1.23,1.23,0,0,1-1.32-1.24c0-1,.93-1.61,2.6-1.61v-.09a.89.89,0,0,0-1-1,2.17,2.17,0,0,0-1.13.33l-.17-.52a2.66,2.66,0,0,1,1.41-.39c1.33,0,1.65.91,1.65,1.77v1.62a6.63,6.63,0,0,0,.07,1Zm-.12-2.21c-.86,0-1.83.13-1.83,1a.69.69,0,0,0,.74.75,1,1,0,0,0,1.09-1Z" transform="translate(-173.33 -488.69)"/><path class="cls-4" d="M316.56,546.64v1.24h1.12v.6h-1.12v2.33c0,.54.15.84.58.84a2.18,2.18,0,0,0,.46,0l0,.59a2.08,2.08,0,0,1-.7.1,1.07,1.07,0,0,1-.85-.33,1.6,1.6,0,0,1-.3-1.12v-2.36h-.67v-.6h.67v-1Z" transform="translate(-173.33 -488.69)"/><path class="cls-4" d="M319.44,546.67a.46.46,0,0,1-.5.48.47.47,0,0,1-.48-.48.48.48,0,0,1,.5-.49A.46.46,0,0,1,319.44,546.67Zm-.88,5.54v-4.33h.79v4.33Z" transform="translate(-173.33 -488.69)"/><path class="cls-4" d="M324.56,550a2.1,2.1,0,0,1-2.15,2.29,2,2,0,0,1-2.07-2.22,2.11,2.11,0,0,1,2.14-2.3A2,2,0,0,1,324.56,550Zm-3.43,0c0,1,.55,1.66,1.32,1.66s1.31-.7,1.31-1.68c0-.73-.37-1.66-1.3-1.66S321.13,549.23,321.13,550.05Z" transform="translate(-173.33 -488.69)"/><path class="cls-4" d="M325.55,549.05c0-.44,0-.81,0-1.17h.69l.05.72h0a1.59,1.59,0,0,1,1.43-.82c.59,0,1.52.36,1.52,1.84v2.59h-.78v-2.5c0-.69-.26-1.27-1-1.27a1.12,1.12,0,0,0-1.06.8,1.32,1.32,0,0,0-.05.37v2.6h-.79Z" transform="translate(-173.33 -488.69)"/></svg>