<svg xmlns="http://www.w3.org/2000/svg" viewBox="0 0 579.76 172.02"><defs><style>.cls-1{fill:#fff;}.cls-2{fill:#868686;}</style></defs><title>Fichier 5</title><g id="Calque_2" data-name="Calque 2"><g id="Calque_1-2" data-name="Calque 1"><path class="cls-1" d="M532.28,87.42h0c-7-7.64-5.82-5.93-14.33-12.93h0a9.34,9.34,0,0,0-1.22-1.4c-15.88-12.65-9.3-13.06-28.41-.88h0c-2.95,1.41-6,2.72-8.8,4.25-2.3,1.27-3.87,2.1-7.24.67-12-5.11-25.12-9.39-32.53-17.7h0l-3.29-2.29h0c-5.88-7.83-14.29-14.48-24.63-20.24a8.64,8.64,0,0,0-5.14-3.23h0a14.92,14.92,0,0,0-1.5-.07c-2.81-5-10.75-7.29-15.54-11.27-8.56-7.11-8.76-7-18.11-.74a11.21,11.21,0,0,0-1.41,1.33h0c-8.8,4.63-15.84,10.25-23,15.78-4.61,3.58-7.41,3.66-11.71-.41-14.79-14-32.94-26.34-52.32-38a7.34,7.34,0,0,0-2.28-.25c-16.43,6.25-33.59,12-41.3,24h0c-.87.69-1.8,1.35-2.6,2.07-7.31,6.59-12.79,14.48-22.29,19.49-16.12,8.49-34.85,15.1-52.3,22.66-3.39,1.47-5.33,1.29-7.87-.56-5.4-3.93-11.74-7.44-16.42-11.66-4.1-3.69-6.64-2.79-10.31-.16-6.2,4.44-12.57,8.79-18.87,13.17-9,4.17-15,10-22.67,15-2.49,1-4.71,2.12-4.8,4.37l6.65-3.21h0c7.67-3.8,16.18-7,22.65-11.68h0c6.47-1.73,11.08-5,16.53-7.58,3.49-1.65,6.71-3.29,11.32-.66C147.48,70.35,156.78,75.15,166,80c1.35.72,2.43,2.2,5,1.15-6.17-7.05-6.2-7.08,5.83-11.63,13.29-5,26.79-9.86,39.89-15.08,4-1.6,6.37-1.29,9.78.47,5.21,2.68,11,5,18,8-4.08-6.69-11.75-11.21-13.32-17.42C239.24,40,244.9,33.3,251.72,27.13h0c7.61-6,13.13-13.13,24.62-17,3.69-.48,5.91.92,8.12,2.38Q292.4,17.76,300.38,23h0L319.5,38.07A97.08,97.08,0,0,0,335.1,52h0c1.8,4.44,7.73,4.79,13.68,5.86,17.41,3.13,34.4,4.66,50.87-1.68,1.33-.49,3.41-.44,3.64-2.16-5.38.5-10.82-.93-15.81,1.1h0c-4.89,0-10,.61-14.63-.07-7.88-1.16-17.25-.8-21.88-6.35l1.9-2h0c2.47-.82,3.25-2.42,4.61-3.77,5.67-5.55,11.42-11.06,18.92-15.8,3.11-2,5.32-2.12,8.45,0,4.07,2.74,8.65,5.2,13,7.77,3.26,2.6,5.56,5.71,10.46,7.43l3.45,2.22c.23-.09.45-.16.65-.22l-.65.22C424.41,55.94,435,68.16,455.49,75.78c22.18,8.24,21.53,8.91,40-2.44,5.23-2.32,9.69-2,13.49,1.36a20.49,20.49,0,0,0,3.83,2c8.17,7.72,10,4.77,19.4,11.8Z"/><path class="cls-1" d="M64.4,100.61,32.5,171.14h-.73L0,100.61H11.53l20.58,46.78,20.67-46.78Z"/><path class="cls-1" d="M77.3,111.29V129h26.15V139.8H77.3v19.12h30.31v10.8H66.45V100.61h41.16v10.68Z"/><path class="cls-1" d="M154.94,158.92v10.8H113.27V100.61h10.85v58.31Z"/><path class="cls-1" d="M224.17,136.35a35.67,35.67,0,1,1-35.67-35.67A35.67,35.67,0,0,1,224.17,136.35Zm-35.67-29a29,29,0,1,0,29,29A29,29,0,0,0,188.5,107.35Z"/><circle class="cls-1" cx="188.45" cy="136.33" r="2.71"/><line class="cls-1" x1="188.89" y1="133.65" x2="193.83" y2="103.79"/><line class="cls-1" x1="189.65" y1="133.89" x2="203.68" y2="107.05"/><line class="cls-1" x1="190.38" y1="134.42" x2="211.95" y2="113.14"/><line class="cls-1" x1="190.85" y1="135.07" x2="218" y2="121.56"/><line class="cls-1" x1="191.13" y1="135.89" x2="221.13" y2="131.38"/><line class="cls-1" x1="191.13" y1="136.76" x2="221.06" y2="141.78"/><line class="cls-1" x1="190.83" y1="137.63" x2="217.84" y2="151.49"/><line class="cls-1" x1="190.36" y1="138.25" x2="211.72" y2="159.83"/><line class="cls-1" x1="189.68" y1="138.75" x2="203.49" y2="165.78"/><line class="cls-1" x1="188.89" y1="139.01" x2="193.58" y2="168.99"/><line class="cls-1" x1="187.97" y1="139" x2="183.2" y2="168.96"/><line class="cls-1" x1="187.19" y1="138.73" x2="173.33" y2="165.7"/><line class="cls-1" x1="186.52" y1="138.24" x2="165.1" y2="159.66"/><line class="cls-1" x1="186.02" y1="137.55" x2="158.98" y2="151.16"/><line class="cls-1" x1="185.76" y1="136.71" x2="155.87" y2="141.41"/><line class="cls-1" x1="185.73" y1="135.89" x2="155.94" y2="130.88"/><line class="cls-1" x1="186.07" y1="135.02" x2="159.16" y2="121.21"/><line class="cls-1" x1="186.54" y1="134.4" x2="165.33" y2="112.85"/><line class="cls-1" x1="187.29" y1="133.87" x2="173.76" y2="106.82"/><line class="cls-1" x1="188.1" y1="133.64" x2="183.68" y2="103.71"/><path class="cls-2" d="M254.9,158.49l8.53-6.09c3.06,5.37,8.78,8.44,15.38,8.44,7.72,0,13.56-3.71,13.56-9,0-6.35-9-10.19-17.05-13.64s-17-7.76-17-18.54c0-11.26,9.76-19.1,22.12-19.1,9.81,0,17.14,4.73,19.95,12.28l-8,5.54a12.82,12.82,0,0,0-11.85-7.25c-6.31,0-11.34,3.92-11.34,8.78,0,5.37,6.35,7.29,14.7,10.87,10.87,4.77,19.31,10,19.31,20.84,0,12.19-10.57,20-24.51,20C267.39,171.71,258.82,166.42,254.9,158.49Z"/><path class="cls-2" d="M317.64,112.46v17.6h26V140.8h-26v19h30.13v10.75H306.85V101.85h40.92v10.61Z"/><path class="cls-2" d="M391.16,170.56,372.66,144h-8.44v26.6H353.44l0-68.71h21.35c12.79,0,23.27,9.84,23.27,22.08a20.1,20.1,0,0,1-13.59,19.13l20,27.5ZM375,135c6.48,0,11.89-5.2,11.89-11.34,0-6.39-5.5-11.13-11.89-11.13H364.18V135Z"/><path class="cls-2" d="M459.36,101.85,427.64,172h-.72l-31.58-70.11H406.8l20.46,46.5,20.54-46.5Z"/><path class="cls-2" d="M461.4,101.85h10.78v68.71H461.4Z"/><path class="cls-2" d="M476.53,136.24c0-19.35,16.15-35.59,35.46-35.59,8.91.13,17.13,3.92,23.87,10.49l-6.27,8.48c-4.82-4.82-11.08-8-17.82-8-12.44,0-24.33,10.91-24.33,24.68s12.06,24.55,24.38,24.55c7,0,13.08-3.5,17.81-8.19l6.23,8.7c-5.93,5.84-13.47,10.31-23.7,10.31C492.68,171.66,476.53,155.64,476.53,136.24Z"/><path class="cls-2" d="M549.62,112.46v17.6h26V140.8h-26v19h30.14v10.75H538.84V101.85h40.92v10.61Z"/></g></g></svg>