<svg id="Calque_1" data-name="Calque 1" xmlns="http://www.w3.org/2000/svg" viewBox="0 0 940 285.06"><defs><style>.cls-1{fill:#fff;}.cls-2{fill:#848585;}.cls-3{fill:#e10b17;}</style></defs><title>rt</title><path class="cls-1" d="M722.35,301.26h0c-9.18-10-7.59-7.74-18.7-16.87h0a11.78,11.78,0,0,0-1.59-1.83c-20.73-16.51-12.14-17-37.07-1.15h0c-3.84,1.84-7.87,3.55-11.48,5.54-3,1.66-5,2.74-9.44.87-15.68-6.66-32.77-12.25-42.45-23.08h0l-4.29-3h0c-7.66-10.21-18.64-18.89-32.14-26.4-1.31-2-3.56-3.36-6.7-4.21h0a18.19,18.19,0,0,0-2-.1c-3.67-6.5-14-9.51-20.28-14.7-11.17-9.28-11.43-9.2-23.63-1a15.37,15.37,0,0,0-1.85,1.74h0c-11.47,6-20.65,13.37-29.95,20.59-6,4.67-9.67,4.77-15.28-.54-19.3-18.28-43-34.36-68.27-49.56-1-.12-2.32-.57-3-.32-21.44,8.15-43.83,15.7-53.89,31.3h0c-1.14.9-2.35,1.77-3.4,2.71-9.53,8.59-16.69,18.89-29.08,25.42-21,11.08-45.46,19.71-68.23,29.57-4.43,1.91-7,1.68-10.27-.73-7.05-5.13-15.33-9.71-21.43-15.21-5.35-4.82-8.66-3.64-13.46-.21-8.08,5.79-16.39,11.46-24.61,17.18-11.73,5.44-19.59,13.1-29.58,19.54-3.26,1.3-6.15,2.76-6.27,5.69l8.68-4.19h0c10-5,21.12-9.12,29.56-15.24h0c8.44-2.25,14.46-6.51,21.57-9.88,4.56-2.16,8.77-4.29,14.78-.86,11.6,6.62,23.73,12.89,35.71,19.26,1.76.93,3.16,2.87,6.46,1.49-8-9.19-8.08-9.23,7.61-15.17,17.35-6.56,35-12.87,52.05-19.67,5.27-2.1,8.31-1.69,12.76.6,6.8,3.5,14.32,6.46,23.43,10.49-5.32-8.74-15.33-14.63-17.37-22.74,10.66-7.29,18.05-16,26.95-24h0c9.94-7.81,17.14-17.12,32.13-22.15,4.81-.61,7.71,1.22,10.6,3.12q10.35,6.81,20.76,13.59h0l25,19.71A126.71,126.71,0,0,0,465.07,255h0c2.35,5.79,10.09,6.25,17.85,7.64,22.71,4.09,44.89,6.08,66.38-2.19,1.74-.64,4.44-.57,4.74-2.82-7,.66-14.11-1.21-20.62,1.43h0c-6.39,0-13.06.8-19.1-.09-10.27-1.51-22.5-1-28.54-8.28l2.48-2.62h0c3.23-1.07,4.24-3.17,6-4.92,7.39-7.24,14.89-14.43,24.68-20.62,4.06-2.56,6.94-2.76,11,0,5.31,3.58,11.28,6.78,17,10.14,4.24,3.4,7.24,7.45,13.64,9.69l4.5,2.9c.3-.12.58-.21.85-.29l-.85.29c16.49,14.91,30.25,30.85,57,40.8,28.94,10.75,28.09,11.62,52.17-3.19,6.82-3,12.64-2.66,17.6,1.78,1.2,1.07,3.31,1.77,5,2.63,10.65,10.08,13,6.23,25.3,15.4Z" transform="translate(-50 -187.19)"/><path class="cls-1" d="M134,319.24l-41.62,92h-1L50,319.24h15l26.85,61,27-61Z" transform="translate(-50 -187.19)"/><path class="cls-1" d="M150.86,333.17v23.1H185v14.1H150.86v24.95h39.55v14.09H136.7V319.24h53.71v13.93Z" transform="translate(-50 -187.19)"/><path class="cls-1" d="M252.16,395.32v14.09H197.79V319.24h14.15v76.08Z" transform="translate(-50 -187.19)"/><path class="cls-1" d="M342.49,365.87a46.55,46.55,0,1,1-46.55-46.54A46.55,46.55,0,0,1,342.49,365.87ZM295.94,328a37.85,37.85,0,1,0,37.85,37.85A37.85,37.85,0,0,0,295.94,328Z" transform="translate(-50 -187.19)"/><circle class="cls-1" cx="245.88" cy="178.64" r="3.54"/><line class="cls-1" x1="246.46" y1="175.15" x2="252.9" y2="136.19"/><line class="cls-1" x1="247.45" y1="175.47" x2="265.75" y2="140.45"/><line class="cls-1" x1="248.4" y1="176.16" x2="276.54" y2="148.4"/><line class="cls-1" x1="249.02" y1="177.01" x2="284.44" y2="159.38"/><line class="cls-1" x1="249.37" y1="178.07" x2="288.52" y2="172.19"/><line class="cls-1" x1="249.37" y1="179.2" x2="288.43" y2="185.76"/><line class="cls-1" x1="248.98" y1="180.35" x2="284.23" y2="198.43"/><line class="cls-1" x1="248.37" y1="181.16" x2="276.24" y2="209.3"/><line class="cls-1" x1="247.49" y1="181.8" x2="265.51" y2="217.08"/><line class="cls-1" x1="246.46" y1="182.14" x2="252.57" y2="221.26"/><line class="cls-1" x1="245.26" y1="182.13" x2="239.03" y2="221.22"/><line class="cls-1" x1="244.23" y1="181.78" x2="226.15" y2="216.96"/><line class="cls-1" x1="243.36" y1="181.14" x2="215.42" y2="209.09"/><line class="cls-1" x1="242.72" y1="180.24" x2="207.43" y2="198"/><line class="cls-1" x1="242.37" y1="179.14" x2="203.37" y2="185.27"/><line class="cls-1" x1="242.34" y1="178.07" x2="203.46" y2="171.53"/><line class="cls-1" x1="242.77" y1="176.94" x2="207.67" y2="158.92"/><line class="cls-1" x1="243.39" y1="176.12" x2="215.72" y2="148.01"/><line class="cls-1" x1="244.37" y1="175.44" x2="226.72" y2="140.15"/><line class="cls-1" x1="245.43" y1="175.13" x2="239.65" y2="136.09"/><path class="cls-2" d="M382.58,394.76l11.13-7.95c4,7,11.45,11,20.07,11,10.07,0,17.69-4.84,17.69-11.68,0-8.29-11.79-13.29-22.25-17.8C398.71,363.67,387,358.22,387,344.15c0-14.68,12.74-24.91,28.87-24.91,12.79,0,22.35,6.17,26,16l-10.45,7.23A16.72,16.72,0,0,0,416,333c-8.23,0-14.8,5.11-14.8,11.45,0,7,8.29,9.51,19.19,14.19,14.18,6.22,25.19,13.06,25.19,27.19,0,15.91-13.79,26.14-32,26.14C398.88,412,387.7,405.1,382.58,394.76Z" transform="translate(-50 -187.19)"/><path class="cls-2" d="M464.44,334.7v23h33.92v14H464.44v24.8h39.32v14H450.37V320.85h53.39V334.7Z" transform="translate(-50 -187.19)"/><path class="cls-2" d="M560.37,410.5l-24.14-34.71h-11V410.5H511.15l0-89.65H539c16.68,0,30.36,12.85,30.36,28.81a26.24,26.24,0,0,1-17.74,25l26.09,35.87Zm-21.08-46.38c8.46.05,15.52-6.79,15.52-14.8,0-8.34-7.17-14.51-15.52-14.51H525.17v29.31Z" transform="translate(-50 -187.19)"/><path class="cls-2" d="M649.35,320.85,608,412.33H607l-41.21-91.48h15l26.69,60.67,26.81-60.67Z" transform="translate(-50 -187.19)"/><path class="cls-2" d="M652,320.85h14.07V410.5H652Z" transform="translate(-50 -187.19)"/><path class="cls-2" d="M671.75,365.73c0-25.25,21.08-46.44,46.27-46.44,11.62.17,22.36,5.12,31.14,13.68L741,344c-6.29-6.28-14.46-10.46-23.25-10.46-16.24,0-31.75,14.24-31.75,32.2s15.73,32,31.81,32c9.17,0,17.07-4.56,23.24-10.68l8.12,11.34c-7.73,7.62-17.57,13.46-30.92,13.46C692.83,411.94,671.75,391,671.75,365.73Z" transform="translate(-50 -187.19)"/><path class="cls-2" d="M767.12,334.7v23h33.93v14H767.12v24.8h39.32v14H753.05V320.85h53.39V334.7Z" transform="translate(-50 -187.19)"/><path class="cls-3" d="M402.14,452.26H392v9.45h11.36v2.84H388.57V438.34h14.16v2.84H392v8.28h10.19Z" transform="translate(-50 -187.19)"/><path class="cls-3" d="M407.58,450.82c0-1.94,0-3.53-.15-5.09h3l.19,3.11h.08A6.93,6.93,0,0,1,417,445.3c2.6,0,6.64,1.56,6.64,8v11.24h-3.42V453.7c0-3-1.13-5.56-4.35-5.56a4.86,4.86,0,0,0-4.59,3.5,4.8,4.8,0,0,0-.23,1.59v11.32h-3.43Z" transform="translate(-50 -187.19)"/><path class="cls-3" d="M433.12,440.32v5.41H438v2.6h-4.9v10.15c0,2.34.66,3.66,2.57,3.66a7.51,7.51,0,0,0,2-.23l.16,2.57a8.46,8.46,0,0,1-3,.46,4.74,4.74,0,0,1-3.69-1.44c-1-1-1.32-2.68-1.32-4.9V448.33h-2.92v-2.6h2.92v-4.51Z" transform="translate(-50 -187.19)"/><path class="cls-3" d="M441.87,451.6c0-2.22,0-4.12-.16-5.87h3l.12,3.69H445a5.64,5.64,0,0,1,5.21-4.12,4.2,4.2,0,0,1,1,.11v3.24a5.1,5.1,0,0,0-1.18-.12c-2.4,0-4.12,1.83-4.58,4.4a9.18,9.18,0,0,0-.16,1.59v10h-3.38Z" transform="translate(-50 -187.19)"/><path class="cls-3" d="M456.1,455.76c.07,4.63,3,6.54,6.46,6.54a12.5,12.5,0,0,0,5.21-1l.58,2.45a15.39,15.39,0,0,1-6.27,1.16c-5.79,0-9.25-3.81-9.25-9.49s3.34-10.15,8.83-10.15c6.15,0,7.78,5.41,7.78,8.87a12.31,12.31,0,0,1-.12,1.59Zm10-2.45c0-2.17-.9-5.56-4.75-5.56-3.46,0-5,3.19-5.25,5.56Z" transform="translate(-50 -187.19)"/><path class="cls-3" d="M477.79,440.32v5.41h4.9v2.6h-4.9v10.15c0,2.34.66,3.66,2.56,3.66a7.54,7.54,0,0,0,2-.23l.16,2.57a8.5,8.5,0,0,1-3,.46,4.74,4.74,0,0,1-3.69-1.44c-1-1-1.33-2.68-1.33-4.9V448.33h-2.91v-2.6h2.91v-4.51Z" transform="translate(-50 -187.19)"/><path class="cls-3" d="M490.34,440.44a2,2,0,0,1-2.17,2.1,2,2,0,0,1-2.06-2.1,2.08,2.08,0,0,1,2.14-2.14A2,2,0,0,1,490.34,440.44Zm-3.8,24.11V445.73H490v18.82Z" transform="translate(-50 -187.19)"/><path class="cls-3" d="M497.54,455.76c.07,4.63,3,6.54,6.45,6.54a12.52,12.52,0,0,0,5.22-1l.58,2.45a15.39,15.39,0,0,1-6.27,1.16c-5.79,0-9.25-3.81-9.25-9.49s3.34-10.15,8.83-10.15c6.15,0,7.78,5.41,7.78,8.87a12.31,12.31,0,0,1-.12,1.59Zm10-2.45c0-2.17-.9-5.56-4.75-5.56-3.46,0-5,3.19-5.25,5.56Z" transform="translate(-50 -187.19)"/><path class="cls-3" d="M515.11,450.82c0-1.94-.05-3.53-.16-5.09h3l.2,3.11h.07a6.94,6.94,0,0,1,6.23-3.54c2.6,0,6.65,1.56,6.65,8v11.24h-3.42V453.7c0-3-1.13-5.56-4.36-5.56a4.87,4.87,0,0,0-4.59,3.5,5.08,5.08,0,0,0-.23,1.59v11.32h-3.42Z" transform="translate(-50 -187.19)"/><path class="cls-3" d="M553.28,438.69a35.17,35.17,0,0,1,6.49-.55c3.62,0,6,.66,7.59,2.14a6.55,6.55,0,0,1,2.06,5,6.88,6.88,0,0,1-4.94,6.69v.12c2,.7,3.23,2.56,3.85,5.29a40.49,40.49,0,0,0,2,7.19h-3.51a33.52,33.52,0,0,1-1.75-6.26c-.78-3.62-2.17-5-5.25-5.09h-3.19v11.35h-3.38Zm3.38,11.94h3.46c3.62,0,5.91-2,5.91-5,0-3.38-2.44-4.86-6-4.9a13.75,13.75,0,0,0-3.35.31Z" transform="translate(-50 -187.19)"/><path class="cls-3" d="M576.14,455.76c.07,4.63,3,6.54,6.46,6.54a12.5,12.5,0,0,0,5.21-1l.58,2.45a15.39,15.39,0,0,1-6.27,1.16c-5.79,0-9.25-3.81-9.25-9.49s3.34-10.15,8.83-10.15c6.15,0,7.78,5.41,7.78,8.87a12.31,12.31,0,0,1-.12,1.59Zm10-2.45c0-2.17-.89-5.56-4.75-5.56-3.46,0-5,3.19-5.25,5.56ZM587,437.6l-4.75,5.56h-2.45l3.42-5.56Z" transform="translate(-50 -187.19)"/><path class="cls-3" d="M593.71,451.87c0-2.41-.08-4.35-.16-6.14h3.07l.16,3.23h.07a7.41,7.41,0,0,1,6.7-3.66c4.55,0,8,3.85,8,9.57,0,6.77-4.12,10.11-8.56,10.11a6.6,6.6,0,0,1-5.79-3h-.08v10.22h-3.38Zm3.38,5a8.58,8.58,0,0,0,.15,1.4,5.3,5.3,0,0,0,5.14,4c3.62,0,5.72-3,5.72-7.28,0-3.77-2-7-5.61-7a6,6,0,0,0-5.4,5.64Z" transform="translate(-50 -187.19)"/><path class="cls-3" d="M626.25,464.55l-.27-2.37h-.12a7,7,0,0,1-5.76,2.8,5.36,5.36,0,0,1-5.75-5.41c0-4.55,4-7,11.32-7v-.39c0-1.55-.43-4.35-4.28-4.35a9.42,9.42,0,0,0-4.9,1.4l-.78-2.26a11.7,11.7,0,0,1,6.18-1.67c5.76,0,7.16,3.93,7.16,7.7v7a26.84,26.84,0,0,0,.31,4.51Zm-.51-9.6c-3.73-.08-8,.58-8,4.23a3,3,0,0,0,3.23,3.27,4.67,4.67,0,0,0,4.55-3.15,3.42,3.42,0,0,0,.19-1.09Z" transform="translate(-50 -187.19)"/><path class="cls-3" d="M634.57,451.6c0-2.22-.05-4.12-.16-5.87h3l.12,3.69h.16a5.63,5.63,0,0,1,5.21-4.12,4,4,0,0,1,1,.11v3.24a5,5,0,0,0-1.17-.12c-2.41,0-4.12,1.83-4.59,4.4a10.36,10.36,0,0,0-.15,1.59v10h-3.38Z" transform="translate(-50 -187.19)"/><path class="cls-3" d="M657.51,464.55l-.28-2.37h-.11a7,7,0,0,1-5.76,2.8,5.37,5.37,0,0,1-5.76-5.41c0-4.55,4-7,11.32-7v-.39c0-1.55-.42-4.35-4.28-4.35a9.45,9.45,0,0,0-4.9,1.4L647,447a11.67,11.67,0,0,1,6.18-1.67c5.76,0,7.16,3.93,7.16,7.7v7a25.83,25.83,0,0,0,.31,4.51ZM657,455c-3.73-.08-8,.58-8,4.23a3,3,0,0,0,3.22,3.27,4.69,4.69,0,0,0,4.56-3.15,3.73,3.73,0,0,0,.19-1.09Z" transform="translate(-50 -187.19)"/><path class="cls-3" d="M669.79,440.32v5.41h4.9v2.6h-4.9v10.15c0,2.34.66,3.66,2.56,3.66a7.54,7.54,0,0,0,2-.23l.16,2.57a8.54,8.54,0,0,1-3,.46,4.76,4.76,0,0,1-3.7-1.44c-1-1-1.32-2.68-1.32-4.9V448.33h-2.92v-2.6h2.92v-4.51Z" transform="translate(-50 -187.19)"/><path class="cls-3" d="M682.34,440.44a2,2,0,0,1-2.17,2.1,2,2,0,0,1-2.06-2.1,2.08,2.08,0,0,1,2.13-2.14A2,2,0,0,1,682.34,440.44Zm-3.8,24.11V445.73H682v18.82Z" transform="translate(-50 -187.19)"/><path class="cls-3" d="M704.67,455c0,6.95-4.83,10-9.38,10-5.09,0-9-3.73-9-9.68,0-6.31,4.12-10,9.33-10C701,445.3,704.67,449.23,704.67,455Zm-14.94.19c0,4.12,2.37,7.24,5.72,7.24s5.71-3.08,5.71-7.32c0-3.19-1.59-7.23-5.64-7.23S689.73,451.6,689.73,455.18Z" transform="translate(-50 -187.19)"/><path class="cls-3" d="M709,450.82c0-1.94,0-3.53-.16-5.09h3l.19,3.11h.08a6.93,6.93,0,0,1,6.22-3.54c2.61,0,6.65,1.56,6.65,8v11.24h-3.42V453.7c0-3-1.13-5.56-4.35-5.56a4.86,4.86,0,0,0-4.59,3.5,4.79,4.79,0,0,0-.24,1.59v11.32H709Z" transform="translate(-50 -187.19)"/><path class="cls-3" d="M751.5,464.55,743,438.34h3.65l4.09,12.91c1.13,3.54,2.1,6.73,2.8,9.81h.08c.74-3,1.83-6.34,3-9.77l4.43-13h3.62l-9.37,26.21Z" transform="translate(-50 -187.19)"/><path class="cls-3" d="M768,455.76c.07,4.63,3,6.54,6.45,6.54a12.52,12.52,0,0,0,5.22-1l.58,2.45a15.39,15.39,0,0,1-6.27,1.16c-5.79,0-9.25-3.81-9.25-9.49s3.34-10.15,8.83-10.15c6.14,0,7.78,5.41,7.78,8.87a12.31,12.31,0,0,1-.12,1.59Zm10-2.45c0-2.17-.9-5.56-4.75-5.56-3.46,0-5,3.19-5.25,5.56Z" transform="translate(-50 -187.19)"/><path class="cls-3" d="M785.52,450.82c0-1.94,0-3.53-.16-5.09h3l.2,3.11h.07a6.94,6.94,0,0,1,6.23-3.54c2.6,0,6.65,1.56,6.65,8v11.24h-3.42V453.7c0-3-1.13-5.56-4.36-5.56a4.86,4.86,0,0,0-4.59,3.5,5.08,5.08,0,0,0-.23,1.59v11.32h-3.42Z" transform="translate(-50 -187.19)"/><path class="cls-3" d="M811.06,440.32v5.41H816v2.6h-4.89v10.15c0,2.34.66,3.66,2.56,3.66a7.54,7.54,0,0,0,2-.23l.15,2.57a8.43,8.43,0,0,1-3,.46,4.76,4.76,0,0,1-3.7-1.44c-1-1-1.32-2.68-1.32-4.9V448.33h-2.92v-2.6h2.92v-4.51Z" transform="translate(-50 -187.19)"/><path class="cls-3" d="M821.47,455.76c.08,4.63,3,6.54,6.46,6.54a12.52,12.52,0,0,0,5.22-1l.58,2.45a15.39,15.39,0,0,1-6.27,1.16c-5.79,0-9.25-3.81-9.25-9.49s3.34-10.15,8.83-10.15c6.14,0,7.78,5.41,7.78,8.87a12.31,12.31,0,0,1-.12,1.59Zm10-2.45c0-2.17-.9-5.56-4.75-5.56-3.46,0-5,3.19-5.25,5.56Z" transform="translate(-50 -187.19)"/><path class="cls-3" d="M855.64,438.34H859v23.37h11.2v2.84H855.64Z" transform="translate(-50 -187.19)"/><path class="cls-3" d="M890.37,455c0,6.95-4.82,10-9.38,10-5.09,0-9-3.73-9-9.68,0-6.31,4.12-10,9.33-10C886.71,445.3,890.37,449.23,890.37,455Zm-14.94.19c0,4.12,2.37,7.24,5.72,7.24s5.71-3.08,5.71-7.32c0-3.19-1.59-7.23-5.64-7.23S875.43,451.6,875.43,455.18Z" transform="translate(-50 -187.19)"/><path class="cls-3" d="M908.09,463.85a12.55,12.55,0,0,1-5.41,1.09c-5.67,0-9.37-3.85-9.37-9.61s4-10,10.11-10a11.45,11.45,0,0,1,4.75,1l-.78,2.65a7.91,7.91,0,0,0-4-.9c-4.32,0-6.65,3.19-6.65,7.12,0,4.36,2.8,7,6.54,7a9.89,9.89,0,0,0,4.2-.93Z" transform="translate(-50 -187.19)"/><path class="cls-3" d="M922.52,464.55l-.28-2.37h-.11a7,7,0,0,1-5.76,2.8,5.37,5.37,0,0,1-5.76-5.41c0-4.55,4-7,11.32-7v-.39c0-1.55-.43-4.35-4.28-4.35a9.42,9.42,0,0,0-4.9,1.4L912,447a11.73,11.73,0,0,1,6.19-1.67c5.76,0,7.16,3.93,7.16,7.7v7a26.91,26.91,0,0,0,.3,4.51ZM922,455c-3.73-.08-8,.58-8,4.23a3,3,0,0,0,3.23,3.27,4.69,4.69,0,0,0,4.56-3.15,3.73,3.73,0,0,0,.19-1.09Z" transform="translate(-50 -187.19)"/><path class="cls-3" d="M934.8,440.32v5.41h4.89v2.6H934.8v10.15c0,2.34.66,3.66,2.56,3.66a7.54,7.54,0,0,0,2-.23l.15,2.57a8.43,8.43,0,0,1-3,.46,4.76,4.76,0,0,1-3.7-1.44c-1-1-1.32-2.68-1.32-4.9V448.33h-2.92v-2.6h2.92v-4.51Z" transform="translate(-50 -187.19)"/><path class="cls-3" d="M947.35,440.44a2.12,2.12,0,0,1-4.24,0,2.08,2.08,0,0,1,2.14-2.14A2,2,0,0,1,947.35,440.44Zm-3.81,24.11V445.73H947v18.82Z" transform="translate(-50 -187.19)"/><path class="cls-3" d="M969.67,455c0,6.95-4.82,10-9.37,10-5.1,0-9-3.73-9-9.68,0-6.31,4.12-10,9.33-10C966,445.3,969.67,449.23,969.67,455Zm-14.93.19c0,4.12,2.37,7.24,5.71,7.24s5.72-3.08,5.72-7.32c0-3.19-1.59-7.23-5.64-7.23S954.74,451.6,954.74,455.18Z" transform="translate(-50 -187.19)"/><path class="cls-3" d="M974,450.82c0-1.94,0-3.53-.16-5.09h3l.2,3.11h.07a6.94,6.94,0,0,1,6.23-3.54c2.6,0,6.65,1.56,6.65,8v11.24h-3.42V453.7c0-3-1.13-5.56-4.36-5.56a4.88,4.88,0,0,0-4.59,3.5,5.08,5.08,0,0,0-.23,1.59v11.32H974Z" transform="translate(-50 -187.19)"/></svg>